<mxfile host="app.diagrams.net" agent="Mozilla/5.0 (X11; Ubuntu; Linux x86_64; rv:133.0) Gecko/20100101 Firefox/133.0" version="26.0.5">
  <diagram name="Page-1" id="IORzzoeMpYUUVQfuxksj">
    <mxGraphModel dx="2284" dy="762" grid="1" gridSize="10" guides="1" tooltips="1" connect="1" arrows="1" fold="1" page="1" pageScale="1" pageWidth="850" pageHeight="1100" math="0" shadow="0">
      <root>
        <mxCell id="0" />
        <mxCell id="1" parent="0" />
        <mxCell id="D2eF6PAheGUTO_ZjGkQU-1" value="" style="shape=image;imageAspect=0;aspect=fixed;verticalLabelPosition=bottom;verticalAlign=top;image=data:image/png,iVBORw0KGgoAAAANSUhEUgAAANcAAADqCAMAAAAGRyD0AAAAgVBMVEX///8AAAB5eXnQ0NCOjo7BwcE+Pj59fX23t7eRkZH8/Pzk5OTv7+/09PQeHh4bGxuurq7Hx8enp6fZ2dnh4eFzc3OYmJjIyMg1NTW1tbWEhITp6elra2tXV1fW1tZhYWFJSUmdnZ05OTkTExNRUVFHR0crKysLCwstLS0kJCRVVVUf1vXBAAALd0lEQVR4nO1d6XqqMBAtFjeEKri1LnXpYu37P+CtC7MkExTwSvDL+dUGhDlkm5lMJk9PDg4ODg4ODg4ODg4ODg4ODg46gjDx/YbvJ/OgalFuiJ6/9VL8zEZVi3MjBDOPYxxVLdItEL94GppVC1UeHZ3VH2ZVi1UWiUjL8xZVC1YOcm0dkFQtWhn0jLQ8b1q1cCXwmcFrW9+ZLGY9ajAYtGnBoGrxCoNUl3+unQ0Wvda1wuZSZ3qufw+bAIMOKZ1iHVYmWTksUgJrubhfiVTlARXD1aYhlFckV1mY5Ifymg4cJl4/aXmvErFK4yKvYSVilcbFdlhTO8wwbvRMfOuCVSr/khWP0+KPiuQqC1+sMFQ42pVJVg7ESkGVqYdugecKZSuFNRJLzcgBFr2I01dnsJkkA7sdIMxangyagw0t2Gj3R0kLrr7ql+3B2jPjR62uYKLcsbFWH3nP4KVaKc9b7Za9tRP3m5GW6mmTPTzWNsaFKK46pbHxhGFSidRXoC2Kq7oPm8Z67YhPtQCSyKrzMMsfZ63SHzYUSVfaikqWP25VhczXoUcb41gf5FiVLv2uv6IFVrt33ndHGT9E3ekLSSxOtktIxpv1HcXMj/5RxhfpEjo8vBgKyYLF/G5CFkAGL9T730gpErN2Ejsggxe0OT6pQev8uouABWHmFUHFcC0eR5P7SFgMZl5hKv6O67nBo/BS/ALBd3rB5giCK3gpFwPwx73fRcJiOJn/e+GKsb6gHVprh003qSHcmmgmPvBS6mVkef8Kux7HTJlowapusGLwx4mTQ9UIJUNlzJhhPA5VHdHW7t5Z5Gvw9iHQ8pilQnTBHRolvT6U2qf4aqFRiOV5MAg2rDjtfZ0dllUmvglByzPjFOcQ79XiJH6fvr3KVWsHcAIS8Ro8jbIMyjP21o3yuuOMo+VfuOGI+PKL7gt1eC8G6xYnni/LjFiZGqTqj6se31zASScKorgrDvv76VOwki54n1Wz0MACDz/QC/j8rQl/sodV7/zxY1QlvREBHanHbEhT+l0jXWUevvIL3tpC9zx1nal6ECX2SmVv0sa4sm4gPCDTT0ZURsXrGXbajdb3V3vWCe8iZl5E5MPrEkZEyahXrANxCUraOFk9eRMu2wvShSTnRNTPpG0vUENqiddxGh7fWbJywJFBDpTHhvh6Z8nKARfM5f5DpoE7S1YOPw/KC6cvedEAedUrSAr7l6y54nWrFxU04HiohZ8cgSZnvXYWkbgNyZt0Ydq2F0SP+hUuE+3R5jUFHdQTpUdgEFN6pzbTee/9/bln7dIrtUVUIcn+DkXdGM5SReSzbeciyojIrmj0IfMFjPFi/EUveF9Wxl0uqYjUtanF35yN/UgPpVpa5zpUKsz76ZzsrCAWXMD9pnZ/CgurTHXNLxvthim6rdUzeeUsJCbsWzbDsOxi4xpsVrDo9bBwG6Y5qPCEQbi8cMcB1jmyLxE7jINTIah322qxxSMLNZIsYmc1JOmz0tf40O6CJhk2bdya/q76cKFWQB2OaNglasGk1L4e9vfl5TWuBpUVPfNUucc5wc6NzuFYY7XiMbtwwzerGVhhtjUSNkpaOD3ttoniAEZnIveFoM/qjrLmRDg8MXt51y0QjLfhPu2oBrwKxbNBPdq5BnFCmXg2C5VEQIH6goHD5jWXK3gpmgWW30fCYjDzCkCX4r4pv+a8cP5iAwQOhw3pR7YggxdqkdT5i0sX1m4pOuDES4qDfQoxdm2bDhEhUXzvKGVOzDepGruaCK5BGnrZHYVROKIl1qYfmXO3xkILy5iz654SuWLrrKzHf2kDgSkr2AHWhR+eEH0Jsv6oNrA5DtG+wK8j5gZxFTdTYLI/+zYalVQXUqHUWCgHYfYtVaHMG87VrFiRFKi3spTWxkhL8J/pW5gtHTKI5npFS/yrMu4L8S2tLD7fJkf/2YB41SS3RXP28rLzdvv9zGLliSzGYkchc7Rhwg2H1lbUCR2xai6FdtgPXCliFbCX2NYJQIDbi3Xwn2UC5O8Zyu3UJS7CVC9y86wPTLzAZLTZf5aBh68v3r9qsM81G4bxEI3IiuQqC8P8BapUXecv9J/RmDa0R+qqbxD98BO6EjGzbHXIXAQNudkc2mKQkPgTG9fDr4NifymhUdYmULqMLP9ZvQJ7Ffwaacn7O+qCwBj8ZWEUTR70+jItC7cY5kMkuXK3Na+tI3T//KymiqGCOY+40ddTaosoSamtNrXVMkyI4oej5ODg4ODg4ODg4ODgUC9EYVjVSljQO+PGAszjxur3++UcMZS+5H67zWG76k0PbOmB4+O4FQoW/La3fEkm/gsvkpGN87qfL/h/8KJRXg/Eix1G+kC89o/Ji26VXY6PufMegheuZUJU6EPwgoBm3FT5ELygurDooXiRRDAPxYvE4tjP6zmZNNaLSZIRsJY+kKR8zclrniT+52c3eSuxmibySnwAvbdJl7vax2iGOL3vuH2j+fcHLPZ9dg/lz0Ze81n6W5aOf061leVJqvTOHPvuJV7khDWyrNpRd5q0IxLvcBz8hATTxnmZJC8iuwTmakKZr8MHS//JsW9R4EXSoeACpJQppN9DXp2cvPCsERpNJaUwTpBXjkwkOi+SP2ik38YRQahyXl74mUjUkZxyenYTXmT/E8YDxZ6Mj6K8UClBWsas9nBwegleJFRNPGpeAUSn5OOFtEioolxbFCV4iZtwjbmSPH63kGokkXghf0JLPdTuprzE2Eg2Rv20u0ky01KKHHmFBxdGWjKb//03igReuH+A7EXkTX08S5JuW22YhXkhLaIt0Dcuh+lpGwNeiVi7whM4LxxvaSpPsq1vN0hfMuJtsyivhfgEsj+UKSWs4VzPC49+/CE+MLL3jYVlTj2Cgrw24gNIak1lTyjdh3c1L5xGKC1SXUpwME0uVoxXU/49VoumQpIau5YXhsHtaNQRfjwtlpsMxkV4TQ3HeAfQj4SE1/l5Ycgsi3xDRUN/CU4KRXjhk3+ZGo2hvEKwEGaHvY7XEsdRHiNm2GnAf12IF2DNbwANUAz2z8kLMTQ8RzJNYFosw2uvOOphDhXzYcMG0py8lBEIxkgxRB0mmjK81BhCaN1izBq03ny8jKcZy7Hct+Cl5t0FXuLPYRTOWV+KvQ0Wn2w53oKX+uNsXjAb5e1ffMUIeMkRp2V4oZHMJ8ZsXvCr63iNYTz8uvSYW/GaohrIZhbgJS78+bpAWbxaOPCxngT9S0wNAz8vpm+Advgt5jAUx0PQS6/lhe2ennoDRoA4HsIsWYwXptSgmsUg65VohV6tH6KNRhuAWJgCPl5BvRdVUqIJZuobm/y8nsCttSYPgkIhgwV6JoraKfgtsYsFoOLoXi4yzl3PC+uYeE6ztmai7lXYroStGWSBG9VO7YAA4nvLYVcmwgNRn9fS+ZD1tMK85kIXM9tf1J2RgxcOUEQHQPtLGRLJ60v4N1BBxy5GUtmw6YW5PfLwisAnuoZbiI+ZDVAsUXAJfxSaiqARUP/GJyhAStKaPLzIE0EHCMQDO4d8z1IJXrhfDc8XUpwnkz9oXu1cvIgZCd+JZ3D+PbxEO6u1jL8XB3sY/yJjrqiivLBt92H20LMBayjln9/osprc2H/WWkFeOCuiuWpMeQaftRQv4oKAyV/PAHUGX0+5nhcZJ+A+YwoxaKLleOG3xNRdhvzlPb7ukIMX6bRom8inBLdvs05EvyXOJXMpzdrwqXB9kSwJRCeUjuDu3mj964l2YaLED9TzRA8HpCT6jfo3QV70DDfU7MmENVQXVbYxeWSO9crhuHHEmOoSQSMF1eyDDn1p+6hCxunP0bBfnEuoXXO+q8F0iSQtXVCvwLBN4quWzYA+8r+ldYtGE3/WmPmb0X+Mbw3CxPfbM9+Pa5pOxsHBwcHBwcHBwcHBwcHBwSEf/gHH6oPZL/TH7wAAAABJRU5ErkJggg==;" vertex="1" parent="1">
          <mxGeometry x="630" y="100" width="82.69" height="90" as="geometry" />
        </mxCell>
        <mxCell id="D2eF6PAheGUTO_ZjGkQU-10" style="edgeStyle=orthogonalEdgeStyle;rounded=0;orthogonalLoop=1;jettySize=auto;html=1;exitX=1;exitY=0.5;exitDx=0;exitDy=0;entryX=0;entryY=0.5;entryDx=0;entryDy=0;" edge="1" parent="1" source="D2eF6PAheGUTO_ZjGkQU-2" target="D2eF6PAheGUTO_ZjGkQU-5">
          <mxGeometry relative="1" as="geometry">
            <mxPoint x="270" y="405" as="targetPoint" />
          </mxGeometry>
        </mxCell>
        <mxCell id="D2eF6PAheGUTO_ZjGkQU-2" value="&lt;font style=&quot;font-size: 30px;&quot;&gt;&lt;b&gt;UI&lt;/b&gt;&lt;/font&gt;" style="html=1;dropTarget=0;whiteSpace=wrap;" vertex="1" parent="1">
          <mxGeometry x="-60" y="360" width="220" height="90" as="geometry" />
        </mxCell>
        <mxCell id="D2eF6PAheGUTO_ZjGkQU-3" value="" style="shape=module;jettyWidth=8;jettyHeight=4;" vertex="1" parent="D2eF6PAheGUTO_ZjGkQU-2">
          <mxGeometry x="1" width="20" height="20" relative="1" as="geometry">
            <mxPoint x="-27" y="7" as="offset" />
          </mxGeometry>
        </mxCell>
        <mxCell id="D2eF6PAheGUTO_ZjGkQU-29" style="rounded=0;orthogonalLoop=1;jettySize=auto;html=1;exitX=0.5;exitY=1;exitDx=0;exitDy=0;entryX=0.5;entryY=0;entryDx=0;entryDy=0;" edge="1" parent="1" source="D2eF6PAheGUTO_ZjGkQU-5" target="D2eF6PAheGUTO_ZjGkQU-23">
          <mxGeometry relative="1" as="geometry" />
        </mxCell>
        <mxCell id="D2eF6PAheGUTO_ZjGkQU-30" style="rounded=0;orthogonalLoop=1;jettySize=auto;html=1;exitX=0.5;exitY=1;exitDx=0;exitDy=0;entryX=0.5;entryY=0;entryDx=0;entryDy=0;" edge="1" parent="1" source="D2eF6PAheGUTO_ZjGkQU-5" target="D2eF6PAheGUTO_ZjGkQU-24">
          <mxGeometry relative="1" as="geometry" />
        </mxCell>
        <mxCell id="D2eF6PAheGUTO_ZjGkQU-5" value="&lt;p style=&quot;margin:0px;margin-top:6px;text-align:center;&quot;&gt;&lt;b&gt;&lt;font style=&quot;font-size: 30px;&quot;&gt;LTM&lt;/font&gt;&lt;/b&gt;&lt;/p&gt;&lt;hr size=&quot;1&quot; style=&quot;border-style:solid;&quot;&gt;&lt;p style=&quot;margin:0px;margin-left:8px;&quot;&gt;- cluster 1: API server&lt;/p&gt;&lt;p style=&quot;margin:0px;margin-left:8px;&quot;&gt;- cluster 2: kafka consumer&lt;br&gt;&lt;/p&gt;" style="align=left;overflow=fill;html=1;dropTarget=0;whiteSpace=wrap;" vertex="1" parent="1">
          <mxGeometry x="280" y="360" width="220" height="90" as="geometry" />
        </mxCell>
        <mxCell id="D2eF6PAheGUTO_ZjGkQU-6" value="" style="shape=component;jettyWidth=8;jettyHeight=4;" vertex="1" parent="D2eF6PAheGUTO_ZjGkQU-5">
          <mxGeometry x="1" width="20" height="20" relative="1" as="geometry">
            <mxPoint x="-24" y="4" as="offset" />
          </mxGeometry>
        </mxCell>
        <mxCell id="D2eF6PAheGUTO_ZjGkQU-7" value="&lt;b&gt;&lt;font style=&quot;font-size: 30px;&quot;&gt;WS server&lt;/font&gt;&lt;/b&gt;" style="html=1;dropTarget=0;whiteSpace=wrap;" vertex="1" parent="1">
          <mxGeometry x="280" y="100" width="220" height="90" as="geometry" />
        </mxCell>
        <mxCell id="D2eF6PAheGUTO_ZjGkQU-8" value="" style="shape=module;jettyWidth=8;jettyHeight=4;" vertex="1" parent="D2eF6PAheGUTO_ZjGkQU-7">
          <mxGeometry x="1" width="20" height="20" relative="1" as="geometry">
            <mxPoint x="-27" y="7" as="offset" />
          </mxGeometry>
        </mxCell>
        <mxCell id="D2eF6PAheGUTO_ZjGkQU-14" value="" style="endArrow=classic;startArrow=classic;html=1;rounded=0;exitX=1;exitY=0.5;exitDx=0;exitDy=0;entryX=0;entryY=0.5;entryDx=0;entryDy=0;" edge="1" parent="1" source="D2eF6PAheGUTO_ZjGkQU-2" target="D2eF6PAheGUTO_ZjGkQU-7">
          <mxGeometry width="50" height="50" relative="1" as="geometry">
            <mxPoint x="620" y="390" as="sourcePoint" />
            <mxPoint x="210" y="180" as="targetPoint" />
          </mxGeometry>
        </mxCell>
        <mxCell id="D2eF6PAheGUTO_ZjGkQU-15" value="" style="endArrow=classic;startArrow=classic;html=1;rounded=0;exitX=0.5;exitY=0;exitDx=0;exitDy=0;" edge="1" parent="1" source="D2eF6PAheGUTO_ZjGkQU-5">
          <mxGeometry width="50" height="50" relative="1" as="geometry">
            <mxPoint x="370" y="390" as="sourcePoint" />
            <mxPoint x="670" y="200" as="targetPoint" />
          </mxGeometry>
        </mxCell>
        <mxCell id="D2eF6PAheGUTO_ZjGkQU-16" value="" style="endArrow=classic;startArrow=classic;html=1;rounded=0;entryX=0;entryY=0.5;entryDx=0;entryDy=0;exitX=1;exitY=0.5;exitDx=0;exitDy=0;" edge="1" parent="1" source="D2eF6PAheGUTO_ZjGkQU-7" target="D2eF6PAheGUTO_ZjGkQU-1">
          <mxGeometry width="50" height="50" relative="1" as="geometry">
            <mxPoint x="700" y="340" as="sourcePoint" />
            <mxPoint x="670" y="340" as="targetPoint" />
          </mxGeometry>
        </mxCell>
        <mxCell id="D2eF6PAheGUTO_ZjGkQU-17" value="&lt;font style=&quot;font-size: 30px;&quot;&gt;&lt;b&gt;OCR&lt;/b&gt;&lt;/font&gt;" style="html=1;dropTarget=0;whiteSpace=wrap;" vertex="1" parent="1">
          <mxGeometry x="860" y="100" width="220" height="90" as="geometry" />
        </mxCell>
        <mxCell id="D2eF6PAheGUTO_ZjGkQU-18" value="" style="shape=module;jettyWidth=8;jettyHeight=4;" vertex="1" parent="D2eF6PAheGUTO_ZjGkQU-17">
          <mxGeometry x="1" width="20" height="20" relative="1" as="geometry">
            <mxPoint x="-27" y="7" as="offset" />
          </mxGeometry>
        </mxCell>
        <mxCell id="D2eF6PAheGUTO_ZjGkQU-19" value="" style="endArrow=classic;startArrow=classic;html=1;rounded=0;entryX=0;entryY=0.5;entryDx=0;entryDy=0;exitX=1;exitY=0.5;exitDx=0;exitDy=0;" edge="1" parent="1" source="D2eF6PAheGUTO_ZjGkQU-1" target="D2eF6PAheGUTO_ZjGkQU-17">
          <mxGeometry width="50" height="50" relative="1" as="geometry">
            <mxPoint x="620" y="390" as="sourcePoint" />
            <mxPoint x="670" y="340" as="targetPoint" />
          </mxGeometry>
        </mxCell>
        <mxCell id="D2eF6PAheGUTO_ZjGkQU-27" style="rounded=0;orthogonalLoop=1;jettySize=auto;html=1;exitX=0.5;exitY=1;exitDx=0;exitDy=0;entryX=0.5;entryY=0;entryDx=0;entryDy=0;" edge="1" parent="1" source="D2eF6PAheGUTO_ZjGkQU-20" target="D2eF6PAheGUTO_ZjGkQU-25">
          <mxGeometry relative="1" as="geometry" />
        </mxCell>
        <mxCell id="D2eF6PAheGUTO_ZjGkQU-28" style="rounded=0;orthogonalLoop=1;jettySize=auto;html=1;exitX=0.5;exitY=1;exitDx=0;exitDy=0;entryX=0.5;entryY=0;entryDx=0;entryDy=0;" edge="1" parent="1" source="D2eF6PAheGUTO_ZjGkQU-20" target="D2eF6PAheGUTO_ZjGkQU-24">
          <mxGeometry relative="1" as="geometry" />
        </mxCell>
        <mxCell id="D2eF6PAheGUTO_ZjGkQU-20" value="&lt;font style=&quot;font-size: 30px;&quot;&gt;&lt;b&gt;Text Analyzer&lt;br&gt;&lt;/b&gt;&lt;/font&gt;" style="html=1;dropTarget=0;whiteSpace=wrap;" vertex="1" parent="1">
          <mxGeometry x="860" y="360" width="220" height="90" as="geometry" />
        </mxCell>
        <mxCell id="D2eF6PAheGUTO_ZjGkQU-21" value="" style="shape=module;jettyWidth=8;jettyHeight=4;" vertex="1" parent="D2eF6PAheGUTO_ZjGkQU-20">
          <mxGeometry x="1" width="20" height="20" relative="1" as="geometry">
            <mxPoint x="-27" y="7" as="offset" />
          </mxGeometry>
        </mxCell>
        <mxCell id="D2eF6PAheGUTO_ZjGkQU-22" value="" style="endArrow=classic;startArrow=classic;html=1;rounded=0;entryX=0.5;entryY=0;entryDx=0;entryDy=0;" edge="1" parent="1" target="D2eF6PAheGUTO_ZjGkQU-20">
          <mxGeometry width="50" height="50" relative="1" as="geometry">
            <mxPoint x="670" y="200" as="sourcePoint" />
            <mxPoint x="670" y="340" as="targetPoint" />
          </mxGeometry>
        </mxCell>
        <mxCell id="D2eF6PAheGUTO_ZjGkQU-23" value="" style="shape=image;imageAspect=0;aspect=fixed;verticalLabelPosition=bottom;verticalAlign=top;image=data:image/png,iVBORw0KGgoAAAANSUhEUgAAAOEAAADhCAMAAAAJbSJIAAAA4VBMVEX///8xYZIAAAAzY5Po6OhFRUXe3t68vLyLor0kWo75+fkvX5E5aJfE0d6oqKj5+/zs7OxxcXHy8vLi4uKWlpbi5+6+zd3Ly8tZWVnS0tKamprDw8Pu8vZQUFAARoEbVYtlZWV5eXkAQn4mJiazs7MUFBShoaFDQ0NeXl5ra2sxMTGBgYGOjo4uLi45OTkcHBwAO3oAM3Wnuc0RTYXT2+VYe6Kar8YXFxcAOHmlt8yyxNZliKx6kK9ZeaBSbpfc4OgAK3GBnLlLdaAADWYAGGcvTYEAJW9GZZGXpr1mgKNSeqNc2gWpAAAZjUlEQVR4nO1deV/iytIOCQSaBsJiWANhBwVRCTAjoAzc+x4Hv/8HeruqEwhk0XFMPN4fzx9njhCgn1R3dW1dEYQLLrjgggsuuOCCCy644IILLrjgggvei2RUrtRKFTma/OqRBIBk96rVLA8mt53OzWRQbrb6ta8ekgP5bDQaLRSi2by3BPIFWZYrlRL7rxzN8uvycqkaE93Qy5UK/xJpyt1M/yoXu71lEriN5cZXmUxcPh9bspSpDjvH8d/UR5luJd6/dmVnoZWpfAklO/L98sRlaJN6syrbLuuXOy5X3fR8+QFur7Nfxo0hWvIf4m1VjjLxyf6CYtfVm81xphtn87dU6sYzo+Zwcnd4N1b6qsma7N+8KQJxMu6ObH/exa5Ho1GrPDncmk6rH6845STXMq3Dp0ayy88Hj0r5MIJeuc+0fAHBtEh8dOtKtibLBaaJGLJMKcmVTFkcV7y1SbJQs37i5ipMZubPW3d4MHafRNFx06Yjb1tvqgxF0RDKyc9U66aow1Y5WZPgqBv1uSjeb/LLyiXfb1PTy+nvxHr/tNs9zVe/f0+L6vFL+vxGTbqfNfZ3Ic/v7OBEfFwGZxcW4oxkJm/9rc2W08fFdJlW7aKa6g8NXdcJh24YRuR5m7bezY75bcoExcYFSVxnd9ZPKupssUrpDYRBdqtFWlWPVJN586rlirQb7YYJsppuDjwfnw0akSIIiSFCjLaxnZlvd/l6HOWFkJDHKTowDavZdB1pGEwAlANlYET2i+XM9hltudYbOqFIgNFg1xlGg66n5nzUHht6xA4JLlgt+Y3Kcn2cC4thBnUHX/rKghg6hREdxwYECBsf2S+s9TR7gqsk6YQDo6kbL2vzmnSqHTkDe3vPb1OSz9R+OAQrOEVxC1OmDcewDgQkqt//s4TLtPW97nFRhBoP8xmX1EInju/QHxL8zRqujHEoDEG39XCKaon2+ZjOZIAEN/MG9bvMMPZcjkviuBESNVLF440NRd3ED/dSWRlUchuyhfZvJCjpEd/LmLBTU/zuNDWcV+o6V6tdpBi8eZOEjaIMWk1JNfzGzWSzBl04e/CYoXaQNuGTMWU436T3W1SqXTD16oEzRBHi7ptwGYxdMkSHQYME34YUMSejOnd+q0QbCby5oFF/BO0b46904P/Suu/iitAGLELtyWXeuXLU9QV8reZCkX0XvpeEu1sNmGHhhylCbfeGbPQViHDrL2g7RdrGyag41Q2IGBcq3N5ywA4j7IU3YIsu3hg6JbCTFdv+gj79iIEUZ88uFIkOk7jSC17XgEOPrkzDd58AEbKLlKf3LEI7RfjqpeG8LZIusXei8PMBexmWnln+9F9e9AG2uMd3LsLDp+5xvU1d9k/pAeZENfCFWAA9A67QXvff4vQUu0hLvSFoJ0VuI6xcFGob9CksklagDPuw1JnLpL68sb5QkU7frWYOIDrIfkMct0bS1wLf9YNleG1a+EV/EUbIEyjSBvmzSQrQG/A7RedSpE/s9dqdKF4HynBoWmyLt7YKsNdmP/+YH0MjwRSqsnaK/5l9Zakjis1AGZa58aut/BeYZIBu3/6hnuGg+FnFuc08K5xhoDKMgl+RfFuF0Gc2SbXnP9gLj5BICmZ4wmH0vrCXK7cBr8PCgDFk/6pOTXAC1ArFP9oLbTBAa6r0/CdAhsAwUB+xcsMZblz25JMxwra2+NAkZSANJi0lcf5xax0Guh/CDyDDN/ymtgo2959uhhYkA6bA+YZ00KXxIBnGmV04Yf/OPGMXCKLDCMmHliGSQZv2zDsjexjAj4Dt0hr7gTL7N932m4CSvmPXbP7E6D4DznLt4eQLDGvHD5bhHd+Oig3fJYYG9OPxmj9ZjxJEGilaNim7WSG1gTWz2iY+UfbPYThk/6Z916GEJhu3LSUJIouEvoulBPFDjBn/AnV64qBJ9/ClzGrMBRoXBk3z9iyNtDfsmh2TgET1xs+2oeuN+7e8rQgsv0Z7lyjONptZEeic7EnST5VHGIJ1LWA7glDQzJchn2MNwgQSWT3y0Ly6eHJEQ89AjOfpSeJJ29s+QR/YK9FB0PFEsGne1qVEAoa/DPJ7ecwhCUrRxXe3yYiQxVlaR1nr9rcFHkMJOAdVfs+OT8BmU/+z3Zx9eOMWKjzIqDE9/7ETGRpzAaPCNwG7+EPLavNlCK6TaolPUzebDU9Fac/e7lQbXV9l87hKUZJa7cGwnR8ZUuNRQFU6DJYg+odMl6m+lre+OiwnJb3YE6Pd0OdFeC197/ERHhMQZutfvwzdYKrpv+oZQx1mxCBo71AQIAUUP/1tl9GuTYbK4pkYQNBo/+IRmJSX59yAyL1KHxYbVVW3uvQAMtwdf4U7HCGES2vcA1a2PkpDMjBdIWzWP8HJJ3OYr7P1T5hmLr47F1EELiJtnqFYGrSNhI8X6xBozLNfD7q8JgupWME/WsoZKguKbCT0hQTwh2HQkrvwyZyJaNbA0ADIjuLFttuhw/3pci0QLETTbPOJ00g6cJo+EGvwfM4u/1FPNwA78COPDdpIqMpyZ7ANh/2dPjKUCEg3F/wyFIQOj7XNfHQpX4fLe+seGJjlTRM0LD0CPJizgKiH0TYgJ4nxZNtEIeD+Qtor+KKTEY+XKj4RCknfs+EUDwypsXucJnSCjv/UgyFMT+4uUciFo3OxOvrA+FlmM/YKgTOMmzHvvbcyZQw12BgOw6NE13UqoYPnMb1Nhof3GhCN2h2vxd2S7YbN4MsxCma9QMLbf6K4428cYX8MT6nuWWM+sQ8eCzXABT4astRgb2fLoSS5s2wtjGES+uQt0GrTHhwX0Jnn9CY7YH9IV3Db/eBCS8aK39y7EEqHwX+JZYGAJ0G+OzsZSgZMNffpzffDI0MKfx5/AvdJtkDqYdRhQm4Elrt3jIJ6yFDCLOfadSHSBhhlB9XCvZMDQ4L8b4M3aBCw60LyyTsF7MWQ79ou4XpkD8qzaC1ELtKHw5uYOeUmcfCQJzwm61On4CVDHTIS7p+T9Aj7TtUqDTBnqTVNMOUWikGDYA5Uj/2z8SxU4DJUXRiCwnz0UMI/NZvFQwkwvDd/AdUQuKYhFWCO+L30Tl1I3D90KlsC++TSIwDShim8NAVMDViWBv8FPoMhCBb8do+I85Cll4Vp2TS2Hf/AEJgX3RmatyViig2dqRT3lynEoEDDXYdVfWm6F0uvtISEns6jk4mvDCO4lzy2TbGB2p3ze4jx5Wws4HC+HTEzZurlXnDvycXowQqbqcc6NBVmg9s86HKt8R5S3AwrbDMMrYC2z/b8KFuIL+4E2VhhSTlSR6Zp5pmR4tply28A+hZc7RIJ9Ewz6Py9HQUeyRA8F6LXzu6zW+DHMOPEo8AYtinipXi/ZJ6ZDQlQtgPGt5ef72Wd+dk0KEQD04b4PqHs0hl4wHzzZwp8EBpBNE2Hee+wsAQFWi4WNk/u+7hduPhmhLMVuAEgYZYH9Iz/gYbPBVPcP2Br8gjTY8TBbZWCb+GX3OeWDNb68UgUoRF6D6uwz+9paIDNF5J4K3elIUF+U3UyJE8KhD98Mh48bXhPbAxR5eTDs2c4YM7Ajph2n6amDB2yQk2y9Mtd8KAo2OYWQ+4K19gqDDRr6MDIN7bP1+GT47172Nd++xZo4E0Ae9BiqFteRchHuyrckVFWrnrR0plnL1Mo59Je/Yv7cdU9GpKlabCIvRTqVsEh+u0XfMdfnFtnKJ/ZG6XTqDm1F2LGSw0IXkGyJJxzFjY0eSp45j5NMdZ2HubgJsvujYo/LrRlA2/HwmjAZ5hjeBvuKhRw3kAeT5m7ripOJnJCRsKjCcr9G/UZZlZHQlt09RMkCoo0/AOWBfP0ysK9YgGjncsTTcsNnYV/HU7EiiOmUXhtjLgxRXoT/ilZOEHaSnrKhBcIz+1CxLC89vxmuQIPZ2iPsHX+F9aztebDRteMuKXclT86sBvJRh8PTHi6lHbcW0crt1CMGGJ45hRQFAH+xaPrNOVevrC4P1TRUCjG09x3lzPoZq5K+z+Y61AN+RUixEQXFGWoHtof7S9he7BcMWj9VkWjdS0vWdhi3nvMA9BfgBpPx3pFa/gBEKbvTYo4bX+/UdFofRZDayqqHOYX9kILXpzBLPheejiJOpS/CMoSaqEkc/9w1MR6CRE2CQUrja75xvslaPEsgmci0UhhOY2SeDF0wqt+ndE3D/CqBoGnENBeS+azBbk2GtzdXIU2ZytmLMMzzdbe8xInbfl7JcFmmLh/b0ktpfz0Lx4CGl/1q+NRLvbDbF4QC6v3QD7H02xeSShCjke5NTiVrs1T9P59ukb/BYUL/CSgE7chMYSNqsf9YDcpkAYSPJtS2oq8fciEGk/mAe5qHfu79DqD+vUoI2ezGeyvEFLoG/1g0DVu5rdEKBZxlWLnLXSWb6sbHjjlHCvxLnR1ObQHgR8NLzKc49aGa/VQAw0uKNa8LV/Fszbv7tGr8MuCvtM8fhAARVmh9ZCKmq6387iseag1e1g6sGAFdYbFfK6z2gbMUmjp19eZcvJzvOnJOFQjjgkxlhdcIlINPCiZHVgEscynSO4pmAH+lo2Edf7a6t4wjPV0pmnY1EVNTxO8HLAcKsOKWXminm4DkoEH15JNiyDkAASN6JKOo9/5rkQeCmhTrPmmLy9PT88vLxHjnz1ur7VeuP7+2DwTfGp/G6jqhbpFENwsQdN1qNVGJ9HXwzCr4A8mO3QU0Y05165gK8bCDpxC8YBmr2/W0W9VqpzezSiDBHH1SXiu3v/oLDKcG9gkBNqgUL3R2Jv13xCSCrVNDcZrsHrAdjaZGOjfYYuHZtdsEWgdJ3wovsmwDdKa/2pACxij0f7Zfl1sTOXaB7MmlIKTI6DgE8uSrVPpEuVORVzsjI87oTLHaUxxjTGGPgT5SQZhM01st9vEIn3cObLYWewuzDkKGJvKRthialMi93ynF3NHftpyzkXM+2T4y5Bn8J0oXGFLu9vQ+ylGb8xWNdr6nkiSjgeuBfkmZu1lyjLxrOMqpW2z/NtX03A/6xzyiDf2631Bw0hQ3z2cOcsXXX/CNVioo1wVdZaI3LcNSrHRjr41P/LbjyFPXRynYj4rV8aWVg45eWECekZhMxdBm3ErJD/gxvFm9c9DAxJk0DpK3x5cDX+GsNXkm+MMx9X1senbj6uw1yBH8rDlWciZ1pyizRarSOP+Z8OYP274DAXmvgz1tWb12jlDsGfW/CB3TjyaEtcIrm5qvg5n+f0ZQh1H64zc3WAY7i54BuzJ0xuDElBK5kYv1l1cnHgdZevPEAJtbBbUh7z55W0sd5WpfZn4TGT4jR4Om9illJPs5c70Xq3Z47M34Rc1xSI9ZkjU8thkslDIfs3iO0PF1uuyExfGVkil1ZUL0WwWgkg5/srVodrCHfzUwTCMmvw/g3xQ6HUYWsm2kAb1cuzYfxZl6Lsfzvipg6/pWOqHCpIq1/icSspdR+/dGFT9gOfjtw7pi4qhiruwYjF/hUL3ulmfdHq93l2s3CocSv58GZrNL75mb/8I8oVSPB43daHJ0M8uxTMZ3ZCrZz4PB4beyxDLZ5huHv1LOnn/IUReX+gnQwz/V78qofbXEHl/Ih+GEpz+gVD3l5owH8c7GEJDr/zwOzOEuOLUZ5b+ZKq0cBd8c8SAIPLTmT4MsdhLDv5IelAwm2p49zjj4eBQS7o/FxOe0PUpT9RfBVSlzS8e6UdR58LxOUOM+e3W92U45AH+tHcKEVNWgzDL8j8XI65CZtTzxBTWX4jfdrOAam04Jb1JeTLEhIAYYobwk1HjxTGqZzE7P3kghnTOMACAg9j1a3OGpZeQX/rqkX4UsrnCVl4N2vHA1NjsxPwdYTH07J5smGGo4FtDBIRChwdqlh51tBjCgEdnfFUl218DzvLX4aS7e19T3mUW2vr9+8JQ7wSUUWFw3L1NO8Xa2Su2DL9FGMoVfXMhztyelcBbXTPXKfyjB58HyLj8EGC/cBGi8Wye4Qr3iNPnArM24PoVjbMug1LE4PWIEEP+0ueQ/SXKZiBDmNpLcLB0Bk/HJKFb2rfVpAAop+T+e0LXsVsk1pMYxnp5qOmafO0Q/xKYTm1iLDQtteEBQ3qj3U4tzBI2zH6EeVY0AGB2I8bDvbPEer9fL5ZWQUkWH7H3jdUMIo/Pprp22fCSfczlfNNQsA01zEM5H6JW5Y/l+sZb4QElnj6dxK2633xUzsRsycfvj5qZWbwb9fuZTGZ8bT0n8q76nTdCO7LnpRYcmW+TMnwHKtenD7ns1Ef/G/PThkrmiquWXr1VzZS+a1zGH1moJpEL2e+ZC73gggsuuOCCCy644IILLrjggr+Hpqmapri/p2iq6vXe94C6WK/289f5fL9OOM7pzRLsvd1uvl8tZraXN+m03xH+fxVmK0MHUHzYgL5L26SlTeE1QiIULyGHbICyNUjxS4b755hGCEltp9NlsbicblOE6sdHQC13OtXnCf7e7x0h+nzJ31ESJJX2+sp/F2bQJ1E9nD7VVjol1kOgFkyq0tJagYq2pISakvsgw+x1rI6IMdSHmTDKI/aEbk9eWErU7AGzZRN3eXp1IkIJNqf4IMPo2ameXvBt72Y7etb0Q1kRAgcwhCWlqeX59QtKsQ3FRxnGxGsMaAJKfTGEzn7FCEmc7QNFtvYEeIAWpY5nlsEhOCoJf8MwZ/979P6eW/3yxzLxS0IW568Z2OaTiTLh9okVhWcMfRLDQuzdQrz+YAGsG8PUjmiCZlDiuuEx1bRTP4shG3f5ncmv3AcZFiN0fW6tqCrTrQudbF0/oa0pWX4aw5F4885irI8y3OwodR3pij9WzgVFypbuZzG8Em8thoozmWJ/pXXC0C3x4pGMWbMtzmWo2pym3BotCKB+yVz7LIYt80B8tnpdLjdbNhKlUW5Yb7Z4P4BkrXAtXsklfpi02xqWhy1I2pfibI5H4SBin10d59+UGw6vbQ1CNgal0urRQSNFVh52p8K2UPWzGA7xTGAeHtPJzACoFOWSyECCc9gsD/hTXuFcN2bqZSF5xf53UK9PoMypLHbhUNq40mPXg5DlutiLNYf1O7FXs1bf5pVA/wUyn5qPhESkJbL18ibWRP8shjUcFtOosYycT0ZLGfNQRKnTG1WAayGOr0Qz8bLYine7eejiOqoV8nk53hRLzR9xmOnVlngVL8VloTQRr0tMrMkS24cOlRnadE50xpJZaKvF0jTgirwNgSvYEv0LhvZjHd0BdC/Kl8WmpVBLMWgvlBzjsVB+E8zOCuY6rIpiyVxwyevO7R0yjHXMgwZ34th6sy92bK1e1Nk6ZYAPwXaC/QI4MhPUMXMPDIm++TDD3mCU4xhCSSF0Ec3Yq+hLndsKPCnsUKWVH3K2pi61nwth8uQMrZKnkf2kb1W8O/v1zWL9lGLS1KHFQlFy2DpHhn8jw57dLK1fgZqZnGjJJvsr3zyWaSXj/dqRYY03yTIR73GGA27B5+v26i5mAzu3Wm22TOwIpQkhnfJehytK/mKWNuWKCVnmIzhtWTiGRnNjcXBeascZjk9OKxdifB2aT4KtdSZ2Z2XsvoMq6opQQ2W6dO6tSyOfpksF6KF30kElDjOtABWh9VFXNnteCRbD011RGPaQofmdXbEs2zD2PMq1o8yc2RPXxkOCuZF8IkOZ95azUMLC+2i/xR2twSjDJc0Z5lwZmnVr3d6pbwbH8dTp1BmLSOt0L6x5p3YXoCn7iQwL5wy5pZqMyvFqvSdaPY0tGdrLDJUhzNKq9Wi4rjiMyieAZ67oe8cwVJ3OlUedrlwHqXyqXQpfeNquoi+2Tip94jHe85czrJ485r1k7hamf1K7KzssN5WSV8dkVCP0SRWIhxBnjL/2mQyF06YqIKVs3OYLxnuoKjlDWezYBJ4RTxgWYvazzPlMtQD9FKnkmKZMhnuNORfU1W57pdDO5jMZXttPJKHGr9h3yMoEx22uwJ6tWJQZeycMcac5fk4U4akCWxf/cAbrUFBfXd6Cp7ZS6Pn9mQyjPdvZxxGoh8Kd7ZVuD9epqUVLolg152lWHNycMpTF3mGTSU64Ki1K1BH3fOXRplkqojt8RyZZjOt8JsNkVbzN8AVUYOZkBTs8xKyhVq75R8b8EXDJfk8c9rvxWrfauS01e6hpDnGCsTgxb00hx9QO/I/Gdr+IPZYtKExKOk7PJQQaT5xENUHo3Gyo/TGGA7czcsyGFMutq+ooN8ADrzhXb5ujajczzt2INyizKNsgm+WCoMjQorXHlCzTuc2T3UIAPdUbjrrdq9xEHJj6S2Mmd2p95DhbU6qbJilzMMhue1iM6m9m75iGADB8TBfP8VZyI5sbusZlarnBHRv2bf3QHm48nMArncnQ9KeEeLM+4aPOdqvjfhxebt7VBCVTtq++Zgzaed2Ujw8X1VamWzFdLhOrFDO/jzHEzTrCHKvUdrEsLrY7g9lzKUKkNGfIkwAn8HKa34FCrdutVezKXi7F47WK3QzLy2eGZr7ccZ6jiLJvip98k1bcRsCtwAETfZewT9rlFjgT9DsIeZ2mISbARMVUFMXOheYJHOh6KtHX4JM1zbKNc+Vm8L6ouaKmt68pSiKp18RMVc7eK253EmEa9HUx0/AhMEzHKhCuckHwKbhru6q6ctFbfw9lQSPOSHFoKNk8kcxdQId9pp6+cQhgruOEh5lqrV5gZ2G+Nh3ct7I7veb/XCm+CTnOu5B+6xOFF1xwwQUXXHDBBRdccMG78f9EcYizjeP3RgAAAABJRU5ErkJggg==;base64,/9j/4AAQSkZJRgABAQAAAQABAAD/2wCEAAkGBxATEBIRDxAQFRAQFxUQFRUQDw8QFREVFRcWFxURFhUYHSggGBomHRYWITEhJikrLi4uFx8/ODMtNygtLisBCgoKDg0OGxAQGjYlHyYtNzctLy01MS0tLy0tLS0tLSstLS0tLS0tLSstLS0uLS0tLS0tLS0tLS0tLS0tLS0tLf/AABEIAOEA4QMBIgACEQEDEQH/xAAbAAEAAgMBAQAAAAAAAAAAAAAABgcCAwUEAf/EAEcQAAIBAwAGBwQECggHAAAAAAABAgMEEQUGEiExUQcTIjJBcYFhkaGxFCNCwTRDUmJyc4KTstIWJCUzNVSz0RVTY5Ki4fD/xAAZAQEAAwEBAAAAAAAAAAAAAAAAAQIFAwT/xAAmEQEBAAICAQMEAgMAAAAAAAAAAQIRAxIhBDFRM0FCYSKBEyMy/9oADAMBAAIRAxEAPwC8QAAAAAAAAAAAAAAAD5OSSbfBb2fSM63adjThKhTeas1iWPxcXx9fYUzzmGO6pnnMJupJCaaTTymsp80zIieoWl+spyt5v6yj3c/apvh7uHuJYOPOZ4zKGGczxlgAC64AAAAAAAAAAAAAAAAAAAAAAAAAAAAAAHJ1j0xG2pOW51JboR5v8p+xEZZTGbqMspjN14dadYupTpUnms1vfhTT+8gM5Nttttve2+LfMwqVpTlKU23KTy2/FhGRzct5LtlcvLeS7aLa9nRrKrSeJxeV96fsLV1c09Tuqe1HdUjhTh4xfNc4vmVFX7z8z0aK0jUoVY1ab3x4rwkvGL9hPBzXjv6OHmvHf0uwHh0PpOFxRjVp8HuafGMlxiz3GtLLNxqyyzcAASkAAAAAAAAAAAAAAAAAAAAAAAAAAGM5JJtvCW9t+CXFlUaf0o7ivKp9hdmC5RXB+vH1Jhr9pR06KoxfarZT9kFx9/D3ldxZnes5d3pGf6vk3ekZpm1Go2RZ43jeGv3mYGy47zNZCHf1O027aulJ/U1cRn+a/Cfp8i10yiS0dQ9Lddb9XN5qUOzv4yh9l/d6Hv8AScv4X+nu9Jy/hf6SYAHve8AAAAAAAAAAAAAAAAAAAAAAAAAPFpq76q3q1FxhBtfpcI/Foi3U2i3U2rTW7SPXXdRp5hT+qj+zxfvycgwM0YmWVyytrEyy7ZW1sTM4M1wMiB5a/eZgbLjvM1NhD6dvU/SXUXcG32Kn1cvKXB+/BwtpDb8ycbcbLFscrjZYvkHN1dv+vtaNV96UUpfpR3S+KZ0jbl3NxtS7m4AAlIAAAAAAAAAAAAAAAAAAAAAEZ6Qa+zabP/MlGPot7+RJiE9JlTsUI85Sl7lj7zj6i6464+ouuKoEjNGEWZIx2OzizYajYmEvJdd5+hpNtz3n6GolL4AALJ6MbrNCrSb7k9peUlv+KJoVt0Y1cV6sfCUE/c//AGWSa3prvjjV9Nd8cAAd3cAAAAAAAAAAAAAAAAAAAAACBdJveoeU/miekH6TYdmhL2yj8Ezz+qn+qvP6v6VQJGeTAyRkMhmbIcDWjKLJWjzXPeZqNt13maSUgAAlnRs/64/1cvnEtErHozhm6m+VN/Fos41PSfTafpPpgAPS9IAAAAAAAAAAAAAAAAAAAAAEY6QrbatNpcacoy9HufzRJzzaTtFVo1KT/GRcfJtbn78FOTHthYpy49sLipM+xZ9qQcW4yWJRbi1ya3NGKMNhtkTJGBmSmPNcvtGszuJdo1bRZZkMGO0xkCf9F1s/r6jX5MF8Wyfke1Ds+rsaba31c1X5S7v/AIpe8kJr8GPXjka/Bj145AAHV1AAAAAAAAAAAAAAAAAAAAAAAAVjr9ovqrjrYrsV+15TXeXrx95GC4tY9FK5t5U9yn3oPlJcPR8PUp+tSlGTjJNSi3Fp+DXFGT6ri6Z7+1ZPquLpnv7URkjCJlE87zR5rjvM1mdfvMwLLh7tCaOdxcU6K+2+0+UVvk/ceEsno20NsU3czXaq9mGfCC4y9X8EdeHDvnp24ePvlpNKcFFKMVhRSSS8EtyRkAa7WAAAAAAAAAAAAAAAAAAAAAAAAAAAIVr5q9tJ3VFdqK+sil3kvtr2rxJqGinJxzPHrVOTjmePWqKRnyJdrlqt1bde3j9W984L8Xzkl+T8iJ0Y5aXtXzMfLjywy61j5cdwz65PLdwxOS5M1Hu0zS2ar5SSl9z+Rv1d0HUu6uxDdCOHOeN0F975ImY25dYvcL26x6NUdX5XVbtJqjTw6j5/mJ838i4KcFFKMUlGKSSW5JLgjzaL0dTt6UaVKOIx98n4yb8Wz1mpw8X+PH9tLh4v8eP7AAdnYAAAAAAAAAAAAAAAAAAAAAAAAAAAAAfGiFaxarQhL6RR3QT7VPG5N7lKPJZ8CbHn0jT2qVSPOL+Rz5OOZzyrlhjl7xBrfQEbtxjJyjsdrMeOPFepN9G6PpUKap0YKMFy4t+Mm/F+05erMO+/ZFfP/Y7xHHhJ5+6es3vXkAB1SAAAAAAAAAAAAAAAAAAAAAAAAAAAAAAAAGNRbn5MyAHL0HT2VL24+GTqHxJH0iTUAAEgAcq81jtKU3TqVlGceK2KjxnfxSwRbJ7pktdUHE/pZY/5hfu6v8ojrZYt4+kR9YVYr3uJHfH5T1y+HbBqt7iFSO1TnGUX4xkpL3oXVxCnCU6ktmEVlt53L0LKtoOJ/S2x/wAwv3dX+Uf0tsf8wv3dX+Ur3x+VuuXw7YPNY6Qo1ltUakJpcdl5a81xR6SyoAAAMaqbi1F4k00m1nD8HjxKe1r0npe3vaFCtdKoqkqcoxorqI1FtpKElvccvdxfEi3S2OO1xggmm9WdLXMJTekY0qnGNChCcaa5RdXO03+dj0I/qTrNpWs6mj4Om69Pal11w23RhBqE04pfWS2msepHY6+PdbYKj1s0Hpazh9NWkqlZQac8KVPYy8JqGXGUc8eBPtSNOO8sqdeSSqb4TS4bcHhtex7n6ky/YuPjbvAhmvGt1ShVpWVnGMry4xhz7tKMnsxk14ttPdyT9mcbrUevUhtS0pe/ScZ21KMae1yVNY7PrkbOvymoKr1S1uvLe+/4dpKW29rqo1HxjJ9zf9qEljHjvRKNfnpGFGVeyuKUKdKEp1ISp9tqO9yhPeuHhheY34Ljq6SwFRai3WlryhXjSuVBOa27is5VJxzFfV0oLcuedx4NYLbSmia1Ou7ydaE3xcp7Mmt7hOnJvGVyZHb7p6edbXYDx6Kv41relXW6NSEanllZaIRorTFxpW7uKdOtOhY2uE+pwqtZybUczedmPZk93s5k7VkWGCpNeKF7ouVOva3txKjVbg41p9ZszS2kt/FNJ/8AaS/UyOkp4ub65ozo1KadKFGLiu1iW3PMVvS3ePFkS+dJ6+NpYCvqen7nSV7VtbKq6Fpb56ytBJ1am/GIZ3RTecexZ9hq1l1TvLenK5sNIXcp0ltyp1qm3tJcXHdjPsaJ2dflYxxda7OnK1rScI7Si5KWysprxycfo41vd9SlCskrijjacdyqRfCaXg+aO/rL+CV/0GRfOJJZkjHRxQhKNZyjFtOPeinjc+ZKb7QdtVTU6MPOMVFr2pojXRn3K/nH5MmxXjk6RbO/yVlf29fRtwpUpt0571nhNLjCS5rmWHo+7hXowqR3xqLOHvxzTOD0h0U7RS8YTi165i18V7h0eTbtGnwjOSXqk/myMZ1y6/ZOX8sdo7rzbwjewUIxSlCDaikk3tSWceSJ5LRdvOCjKjTaaX2Irw5og3SA8XtPCy+rhu59qW4789OXyju0fLcuPWOXwSIxsmVTd2TSMRpO00mqdFvCnGOM8YTSey+eFL4Fnlc6vaRt/pcqt7tq4lLc5RSpwfBZ8U/DfuLGTJ4vaq8nuAA6uYVN0l/4vo/zpf60S15ywm8N4WcLi/YVDrRZ6Tu72jdR0bVhGhsOMJzpty2ZbW9p4XLdkrn7L4e64CptQd2sF9j8i4/1qJP3pi4Vr1/0Cv121s/R1Olt8cbW1nGz48/YV1q1ZaTttI1b2ejqso11Ui4RnBOCqTjPKbe/Gyl4cSMvsYzxU+6QV/Zl5+qkcXoZ/wAOl+uqfKB7tf6t1O1lbW1nVqu5puMpKUFGlnGU9+XL4HJ6NKd9aw+i3FjUjCU5VOu24YjtJbpR/Z4rmPyJ/wAo9p6tsazQnV7qqUcZ4YlTUY/FlyEE6SNSZXmxcWzSuaS2MN7KqRTbis+Ek28P2+Rr0JrXpKEFRu9F3NStDs7dLYSqY4OW08J82m/JcBPFL5k0jPSlQ/ti16v+8nGhw47SqyUX/wDciy9c3/Z15+pq/wALOBoLVivWvnpPSKjGosKjQi9tUUliLlLxaTfq2+SPd0gXVz9Hnb21nVru4hODnCUVGlnC3p7297x5D5pfOo4PQf8Agtx+tX8CN3TYv6lSf/WX8Ejn9GVO/s3KhW0fX6uvUi3UzBKlu2W5JvevHcenpRje3SVrQsK0oU5qp1ycXGfZaxFftePIj8VvzSnUVZ0XarnSS+ZXWrF5LQ1/XpXsJq3r9lVFFyXZbdOouaxKSaW9ZJp0dXV3GjC0ubGrRVCnhVZSi4zw0lHZ4qW9vxW4h2vd7pKjpOnOcY1oQcqltS6vrIOOMPNOPa2lniTfaVE97HX10uXpb6PaaPjOdNT66rXcJQp00ouKScl2n2pPC5Lnunc7TqrN0qf4ui4R/ZhhFbx6Ubukvr9GKMeadagvTag0TfU/W2hpCnN04yhUp4U6c2m1nhJNcYvD9xMsRZZEH6D6yVS7py/vGqct/HEXJS+LRbMlnc+DKq0tqlfWN873RkFUpybk6XilLv02vGPJrevTfIHrPpGvSdO30XXp15LZ2684RpU2921njLHkiJdeDKbu4ifRJRa0ldbH93CNSO7hjrMR+RZ2s/4HX/QZztRtVI2FFpyU69V7VWaWFnwjH81fE+623ddwnb0bapPbik6ixsrPFJeL/wBxrWKd7yc3oz7lbzj8mTYrfVyV9aSli0nOE8bUWnF7vFMkr01ezWKVhKMn41qiUV6Jb/eV48tY6M5u7eLpGvUqNOiu9OSm1yjHPzbXuOtqjo90bWEZLEpZm/ZtcF7sHi0ZqzJ1vpN7NVK3FRXcjy88eC4eZIbys4QlOMJTcVlRhjMvYiZPPaot8dYr/X38Op/oQ/ikWHS7q8kVtrFQvLmv1qtKsMJRS7z3b8t+pJLPT95sKM9H1XNJLKmop+3etxXG6yq2U3I5XSRaQUqVVJKc9qMvzksYb8s/ElGq85OzoOedrYXHl9n4YOJLQNxeVo1b3Zp04bo0oPLxxw34Z8WS6EEkklhJYSXglwRbGfyuSuV8SMgAdFAAAAAAAAAAAAAAAAHl0rWnChVnSjtVIQnKEfypKLaXvIB0SaTp13cVK9RTv5zzJzxtOlhbKgvCKe1uRZJCtL9GtlVqutSlVt6km5PqZYjl8ZKL7r8mit2tLNaS2/dJU5uvsdUk9rrMbOz45yV/0S6I2Z3d3GLjb1pOnQT3bUFJvbX5vBL1OxY9H1vFp3Ne5ulHeoXFaTp+sFx9dxLoQSSUUkluSSwkuSQ1s3qajIAFlQAAAAAAAAAAAAAAAAAAAAAAAAAAAAAAAAAAAAAAAAAAAAAAAAAAAAAAAH//2Q==;base64,iVBORw0KGgoAAAANSUhEUgAAASQAAACtCAMAAAAu7/J6AAABDlBMVEX///8yMjIBQGMmJiYcY4lCjqkeHh4vLy9puclFkatDQ0NsvMtjssQkbJBmtsYWXYSOjo41jKgfZospcpRjmrHIyMjn5+cVFRUveJlbqb1xws9YprssdZY0fp04haJNmrIAMloAVX/U1NQAIlEAAAAAN13y+vsALFakpKQNDQ1/f38AJ1OpztkATHkAV4GSrsBPT0+DlqbJ0dhdg59Yf5xbW1u3t7exxNGDg4PZ4+nC09yYp7RngJSavcwjUG/n8vWntL89YHtAYnzOzs6dnZ1Xc4qJmql5la1rjaY8b5EAR3eKpbhxcXFUh6OKrL9ZkKpxqr7A2OCKusqcxdJlZWW2wcrS6e6Hytat2eK33+bXKBaGAAAIS0lEQVR4nO2cC1faPBjHESoXAVGqIIhys0VkyMALgmjRedu8Dd0Qv/8XedNc2pSmwN45Ws95fufsLMnzkOb5k4SkafX5AAAAAAAAAAAAAAAAAAAAAAAAAAAAAAAAAAAAAAAAAAAAAAAAAAAAAAAAAAAAAAD4t2jNc//Fqep2MzxNv6z4/f5CpeV2QzzM77KfUO643RTvovgZl243xbO0KoZINc3txniVfsEQCWYlJ0CkGeiUzeHmdlu8wberk5XdkrXsks3chaY7jfIWx4F0AJFeWudLtQJRSTl3q11e4igdWsCEqnt8eeqiVlAK5Wu32uUljgILBsEHi6lzetOHlSRiJbjAkT52uz1iWv37u4ODg9tGe/KXprYat3eHh3f3/e60PWenjarUXadUiViv8hothEJ/0vQ50T78Ua8XCfUfiXunoNT+d8OxXv/xvT+hyoM6V2XxdqJOqTQVJ00npnRpkrsbNIrF/QTPfv1QFJN2Wy9a/Yr1e3GV/f36TFVSlog0gaNS6ggnA7um8Xgd81ch/i2dJI1c4oOqN2yODRS3JEnsHwbp1LZX2ZKKenXEQ0qQdMJJUJ/vIWAOsnU8OQVWTOtOEJFe+IhY/y/dohGxhf3HMcfDfaGfVLwdr7JRF3vufxfPYrt0sFVTPpFIuCC09IEx/ymtYpJBepLEsgmLSmrcMEjjjofWKu/2kxZXyfxkQrSRL1X5nzQPiqQljFDl+3a3227cGdEn+OEhJ+OYJOpi921E4zGRSMZxqWSR8zbBPBPJu/tGo3EroyppWdLel9QAnZBOcNaDIj2SxscTz+a02k7SkBJm2aOh0ZkZZjsukVKJm8DaCVal+RupNQyVNmxNoKvI0FeS9Z5IXUmOy4hkly9Vn3GhHN9iJW1dDRnFuGbtCQ0JeSGLKacmyUSNR+vIutXL9RqexppAV5GhAK3ZeyI9YjHk5PivM1WJaafGqZ/tJ6+bJBZjwLEax7VAOhOLZL3WMZ2QdtjCyHMideI5nbj9VxyX5+Q1kmvIJGuLHKlEq+haswLPNjHJz3xhik3axrrIcyKdyRs6W3ZLl1hkkiOZ3PiiAPOEjTka+lqOz4k8N+J8V2KrSHNH6zmRnje2EDnBctC3hZFxQEwx8ZKZ6CzjKUWVt8yM2HMjx/UytorkFPCcSFijrZwopDNs2sD6PRE/YfdAwwhbN/B465K0YLDhOkk9Zsdlq8h0ynTymkjaxjZCHPxgC9twuNsktq7ID/UeEjr2fCLSOpz9qDmrma0iq/y+zGsidbAQ28LvXSM2feZWSXJ7zQFixVI/k7TTBYmZqc1WkcEV3sdrIg1ISGdCI1Em4jP0mob+IZL66XTBJ2Knc+BXtvW3+LguUuq01zs1x/9gexGx/UXoi22LiyjVocnJYJG2cEqsOuJsm7OfBIX319wW6aZcUJRC+YblB6t6m1cniaT3pNlFUrHn6kwisVVkNWX1cVmkJj1Wr7ADrMFqBLEoFgnbInmU6pDkFFZV9qHVV6cWnC1iuy5SyrL153BXpJZxFlqm58WDSD4fyUecRMrrVpTSqEirE9k2RIo49qSXiPGtHNEJaW/cx12ResZDLEqPlOgi5R1FymPMZGSGaxBHx4l7k9gHRkdiW38Od0U6Nw7V/fQwdEB0EIuEBcxv6kniFpnh6OvnRDlVUmcErZOOSeQh+zr2U4mUN0V6IWnHqcbkC/EciK30enrv3MX7kcCV3ckrw409MzZ4GXS04auDSJsY7EfS+enX0LBn3mG8ZYj1xWf0pCO70zd3J+6aIZJykZrqToTJcOnNGboScRR3Jaa1biyl6UJyZZyHENHk4dcv2s/mugTo0eehUI9SajfTvDczGJx+obEP7W7qFwI1DYjnpmDPrFIT7pzsHkkoMA57aiIUCtJfvvkuJntlxa8olWt9vVQ41+fh1m/Hp8eISDGc1qhim/ada4yP3PhYJmNXiRo2yegu7SxMI+CKSL5O8/qy2fG19M7krzV/FyqFSsXh2ahMDEMyryzCsXGkxsbLB0ylsV6nIc+Y2TfR1L0T8qZIBk19flLI8CuIn44iIi3TXIySeeE70yjDSs2yF1b2xnmqrxlWgSHeejAwWSa3RaKdiT5n1xN5xJZ1wjSnZQyZwqOhhhi+vxllMcsHDc+o3TMz4jyvlqppG/QRnEA6vUPv6bp4q4RbEZRFN8liYcRylGWHRDQdFrBZYJmA1OUJnuPLjZQNuk460dPEx0WRVHNFUOgL7MtRjJEfom4lZDk8NkmrUQfP8PLIN5WS2/eTeDrmo/bKqcAexhplzQI1S3Wzsvxm/+yb0DMcFiwhbHhKJK0yuSdFsxi+6J1Gm2X/Z6PhrDDwYZY5Zg3/8AzdyOcxkU65OUm0dRWIhGTSwzaJvjn2jeEb75iNZkczvrDmIZFS5+brCIrw100ljBdr7yMa99toODFudTh6Y67vs7874x2RTstT10mTEIj3Aa4Eu0h4mye48/SP0Pq9Xl/1pS50eco3rfNapVLz2NsIpR38WoApEnnoNPRrTtc/xQcBhWZFYXu3VMtzD5GnrnZ1zPNKtnCaz+WbNeMugN9r/WcCe+T+3O50zw+AeylK8XuuAzlC7zzN6cFubh9yMZcLfgjH9AhzTk8o2+9xe52HvaMg3e8G5zPaPqFI5r2Uub1rYj938zrGy12h6rxeNTEPAmqf5I1fJlIgOL/Xca7pTqTwWV5C1EUKBYLVvXn+nRL9IMCvlD/JYPP5dqrV4NeT4zn/KZdW8+Ky+UnGGgAAAAAAAAAAAAAAAAAAAAAAAAAAAAAAAAAAAAAAAAAAAAAAAAAAAAAAAAAAAAB8Yv4Dt/Q1My+BroMAAAAASUVORK5CYII=;" vertex="1" parent="1">
          <mxGeometry x="345" y="600" width="90" height="90" as="geometry" />
        </mxCell>
        <mxCell id="D2eF6PAheGUTO_ZjGkQU-24" value="" style="shape=image;imageAspect=0;aspect=fixed;verticalLabelPosition=bottom;verticalAlign=top;image=data:image/png,iVBORw0KGgoAAAANSUhEUgAAASQAAACtCAMAAAAu7/J6AAABDlBMVEX///8yMjIBQGMmJiYcY4lCjqkeHh4vLy9puclFkatDQ0NsvMtjssQkbJBmtsYWXYSOjo41jKgfZospcpRjmrHIyMjn5+cVFRUveJlbqb1xws9YprssdZY0fp04haJNmrIAMloAVX/U1NQAIlEAAAAAN13y+vsALFakpKQNDQ1/f38AJ1OpztkATHkAV4GSrsBPT0+DlqbJ0dhdg59Yf5xbW1u3t7exxNGDg4PZ4+nC09yYp7RngJSavcwjUG/n8vWntL89YHtAYnzOzs6dnZ1Xc4qJmql5la1rjaY8b5EAR3eKpbhxcXFUh6OKrL9ZkKpxqr7A2OCKusqcxdJlZWW2wcrS6e6Hytat2eK33+bXKBaGAAAIS0lEQVR4nO2cC1faPBjHESoXAVGqIIhys0VkyMALgmjRedu8Dd0Qv/8XedNc2pSmwN45Ws95fufsLMnzkOb5k4SkafX5AAAAAAAAAAAAAAAAAAAAAAAAAAAAAAAAAAAAAAAAAAAAAAAAAAAAAAAAAAAAAAD4t2jNc//Fqep2MzxNv6z4/f5CpeV2QzzM77KfUO643RTvovgZl243xbO0KoZINc3txniVfsEQCWYlJ0CkGeiUzeHmdlu8wberk5XdkrXsks3chaY7jfIWx4F0AJFeWudLtQJRSTl3q11e4igdWsCEqnt8eeqiVlAK5Wu32uUljgILBsEHi6lzetOHlSRiJbjAkT52uz1iWv37u4ODg9tGe/KXprYat3eHh3f3/e60PWenjarUXadUiViv8hothEJ/0vQ50T78Ua8XCfUfiXunoNT+d8OxXv/xvT+hyoM6V2XxdqJOqTQVJ00npnRpkrsbNIrF/QTPfv1QFJN2Wy9a/Yr1e3GV/f36TFVSlog0gaNS6ggnA7um8Xgd81ch/i2dJI1c4oOqN2yODRS3JEnsHwbp1LZX2ZKKenXEQ0qQdMJJUJ/vIWAOsnU8OQVWTOtOEJFe+IhY/y/dohGxhf3HMcfDfaGfVLwdr7JRF3vufxfPYrt0sFVTPpFIuCC09IEx/ymtYpJBepLEsgmLSmrcMEjjjofWKu/2kxZXyfxkQrSRL1X5nzQPiqQljFDl+3a3227cGdEn+OEhJ+OYJOpi921E4zGRSMZxqWSR8zbBPBPJu/tGo3EroyppWdLel9QAnZBOcNaDIj2SxscTz+a02k7SkBJm2aOh0ZkZZjsukVKJm8DaCVal+RupNQyVNmxNoKvI0FeS9Z5IXUmOy4hkly9Vn3GhHN9iJW1dDRnFuGbtCQ0JeSGLKacmyUSNR+vIutXL9RqexppAV5GhAK3ZeyI9YjHk5PivM1WJaafGqZ/tJ6+bJBZjwLEax7VAOhOLZL3WMZ2QdtjCyHMideI5nbj9VxyX5+Q1kmvIJGuLHKlEq+haswLPNjHJz3xhik3axrrIcyKdyRs6W3ZLl1hkkiOZ3PiiAPOEjTka+lqOz4k8N+J8V2KrSHNH6zmRnje2EDnBctC3hZFxQEwx8ZKZ6CzjKUWVt8yM2HMjx/UytorkFPCcSFijrZwopDNs2sD6PRE/YfdAwwhbN/B465K0YLDhOkk9Zsdlq8h0ynTymkjaxjZCHPxgC9twuNsktq7ID/UeEjr2fCLSOpz9qDmrma0iq/y+zGsidbAQ28LvXSM2feZWSXJ7zQFixVI/k7TTBYmZqc1WkcEV3sdrIg1ISGdCI1Em4jP0mob+IZL66XTBJ2Knc+BXtvW3+LguUuq01zs1x/9gexGx/UXoi22LiyjVocnJYJG2cEqsOuJsm7OfBIX319wW6aZcUJRC+YblB6t6m1cniaT3pNlFUrHn6kwisVVkNWX1cVmkJj1Wr7ADrMFqBLEoFgnbInmU6pDkFFZV9qHVV6cWnC1iuy5SyrL153BXpJZxFlqm58WDSD4fyUecRMrrVpTSqEirE9k2RIo49qSXiPGtHNEJaW/cx12ResZDLEqPlOgi5R1FymPMZGSGaxBHx4l7k9gHRkdiW38Od0U6Nw7V/fQwdEB0EIuEBcxv6kniFpnh6OvnRDlVUmcErZOOSeQh+zr2U4mUN0V6IWnHqcbkC/EciK30enrv3MX7kcCV3ckrw409MzZ4GXS04auDSJsY7EfS+enX0LBn3mG8ZYj1xWf0pCO70zd3J+6aIZJykZrqToTJcOnNGboScRR3Jaa1biyl6UJyZZyHENHk4dcv2s/mugTo0eehUI9SajfTvDczGJx+obEP7W7qFwI1DYjnpmDPrFIT7pzsHkkoMA57aiIUCtJfvvkuJntlxa8olWt9vVQ41+fh1m/Hp8eISDGc1qhim/ada4yP3PhYJmNXiRo2yegu7SxMI+CKSL5O8/qy2fG19M7krzV/FyqFSsXh2ahMDEMyryzCsXGkxsbLB0ylsV6nIc+Y2TfR1L0T8qZIBk19flLI8CuIn44iIi3TXIySeeE70yjDSs2yF1b2xnmqrxlWgSHeejAwWSa3RaKdiT5n1xN5xJZ1wjSnZQyZwqOhhhi+vxllMcsHDc+o3TMz4jyvlqppG/QRnEA6vUPv6bp4q4RbEZRFN8liYcRylGWHRDQdFrBZYJmA1OUJnuPLjZQNuk460dPEx0WRVHNFUOgL7MtRjJEfom4lZDk8NkmrUQfP8PLIN5WS2/eTeDrmo/bKqcAexhplzQI1S3Wzsvxm/+yb0DMcFiwhbHhKJK0yuSdFsxi+6J1Gm2X/Z6PhrDDwYZY5Zg3/8AzdyOcxkU65OUm0dRWIhGTSwzaJvjn2jeEb75iNZkczvrDmIZFS5+brCIrw100ljBdr7yMa99toODFudTh6Y67vs7874x2RTstT10mTEIj3Aa4Eu0h4mye48/SP0Pq9Xl/1pS50eco3rfNapVLz2NsIpR38WoApEnnoNPRrTtc/xQcBhWZFYXu3VMtzD5GnrnZ1zPNKtnCaz+WbNeMugN9r/WcCe+T+3O50zw+AeylK8XuuAzlC7zzN6cFubh9yMZcLfgjH9AhzTk8o2+9xe52HvaMg3e8G5zPaPqFI5r2Uub1rYj938zrGy12h6rxeNTEPAmqf5I1fJlIgOL/Xca7pTqTwWV5C1EUKBYLVvXn+nRL9IMCvlD/JYPP5dqrV4NeT4zn/KZdW8+Ky+UnGGgAAAAAAAAAAAAAAAAAAAAAAAAAAAAAAAAAAAAAAAAAAAAAAAAAAAAAAAAAAAAB8Yv4Dt/Q1My+BroMAAAAASUVORK5CYII=;" vertex="1" parent="1">
          <mxGeometry x="595.39" y="600" width="151.91" height="90" as="geometry" />
        </mxCell>
        <mxCell id="D2eF6PAheGUTO_ZjGkQU-25" value="" style="shape=image;imageAspect=0;aspect=fixed;verticalLabelPosition=bottom;verticalAlign=top;image=data:image/jpeg,/9j/4AAQSkZJRgABAQAAAQABAAD/2wCEAAkGBxATEBIRDxAQFRAQFxUQFRUQDw8QFREVFRcWFxURFhUYHSggGBomHRYWITEhJikrLi4uFx8/ODMtNygtLisBCgoKDg0OGxAQGjYlHyYtNzctLy01MS0tLy0tLS0tLSstLS0tLS0tLSstLS0uLS0tLS0tLS0tLS0tLS0tLS0tLf/AABEIAOEA4QMBIgACEQEDEQH/xAAbAAEAAgMBAQAAAAAAAAAAAAAABgcCAwUEAf/EAEcQAAIBAwAGBwQECggHAAAAAAABAgMEEQUGEiExUQcTIjJBcYFhkaGxFCNCwTRDUmJyc4KTstIWJCUzNVSz0RVTY5Ki4fD/xAAZAQEAAwEBAAAAAAAAAAAAAAAAAQIFAwT/xAAmEQEBAAICAQMEAgMAAAAAAAAAAQIRAxIhBDFRM0FCYSKBEyMy/9oADAMBAAIRAxEAPwC8QAAAAAAAAAAAAAAAD5OSSbfBb2fSM63adjThKhTeas1iWPxcXx9fYUzzmGO6pnnMJupJCaaTTymsp80zIieoWl+spyt5v6yj3c/apvh7uHuJYOPOZ4zKGGczxlgAC64AAAAAAAAAAAAAAAAAAAAAAAAAAAAAAHJ1j0xG2pOW51JboR5v8p+xEZZTGbqMspjN14dadYupTpUnms1vfhTT+8gM5Nttttve2+LfMwqVpTlKU23KTy2/FhGRzct5LtlcvLeS7aLa9nRrKrSeJxeV96fsLV1c09Tuqe1HdUjhTh4xfNc4vmVFX7z8z0aK0jUoVY1ab3x4rwkvGL9hPBzXjv6OHmvHf0uwHh0PpOFxRjVp8HuafGMlxiz3GtLLNxqyyzcAASkAAAAAAAAAAAAAAAAAAAAAAAAAAGM5JJtvCW9t+CXFlUaf0o7ivKp9hdmC5RXB+vH1Jhr9pR06KoxfarZT9kFx9/D3ldxZnes5d3pGf6vk3ekZpm1Go2RZ43jeGv3mYGy47zNZCHf1O027aulJ/U1cRn+a/Cfp8i10yiS0dQ9Lddb9XN5qUOzv4yh9l/d6Hv8AScv4X+nu9Jy/hf6SYAHve8AAAAAAAAAAAAAAAAAAAAAAAAAPFpq76q3q1FxhBtfpcI/Foi3U2i3U2rTW7SPXXdRp5hT+qj+zxfvycgwM0YmWVyytrEyy7ZW1sTM4M1wMiB5a/eZgbLjvM1NhD6dvU/SXUXcG32Kn1cvKXB+/BwtpDb8ycbcbLFscrjZYvkHN1dv+vtaNV96UUpfpR3S+KZ0jbl3NxtS7m4AAlIAAAAAAAAAAAAAAAAAAAAAEZ6Qa+zabP/MlGPot7+RJiE9JlTsUI85Sl7lj7zj6i6464+ouuKoEjNGEWZIx2OzizYajYmEvJdd5+hpNtz3n6GolL4AALJ6MbrNCrSb7k9peUlv+KJoVt0Y1cV6sfCUE/c//AGWSa3prvjjV9Nd8cAAd3cAAAAAAAAAAAAAAAAAAAAACBdJveoeU/miekH6TYdmhL2yj8Ezz+qn+qvP6v6VQJGeTAyRkMhmbIcDWjKLJWjzXPeZqNt13maSUgAAlnRs/64/1cvnEtErHozhm6m+VN/Fos41PSfTafpPpgAPS9IAAAAAAAAAAAAAAAAAAAAAEY6QrbatNpcacoy9HufzRJzzaTtFVo1KT/GRcfJtbn78FOTHthYpy49sLipM+xZ9qQcW4yWJRbi1ya3NGKMNhtkTJGBmSmPNcvtGszuJdo1bRZZkMGO0xkCf9F1s/r6jX5MF8Wyfke1Ds+rsaba31c1X5S7v/AIpe8kJr8GPXjka/Bj145AAHV1AAAAAAAAAAAAAAAAAAAAAAAAVjr9ovqrjrYrsV+15TXeXrx95GC4tY9FK5t5U9yn3oPlJcPR8PUp+tSlGTjJNSi3Fp+DXFGT6ri6Z7+1ZPquLpnv7URkjCJlE87zR5rjvM1mdfvMwLLh7tCaOdxcU6K+2+0+UVvk/ceEsno20NsU3czXaq9mGfCC4y9X8EdeHDvnp24ePvlpNKcFFKMVhRSSS8EtyRkAa7WAAAAAAAAAAAAAAAAAAAAAAAAAAAIVr5q9tJ3VFdqK+sil3kvtr2rxJqGinJxzPHrVOTjmePWqKRnyJdrlqt1bde3j9W984L8Xzkl+T8iJ0Y5aXtXzMfLjywy61j5cdwz65PLdwxOS5M1Hu0zS2ar5SSl9z+Rv1d0HUu6uxDdCOHOeN0F975ImY25dYvcL26x6NUdX5XVbtJqjTw6j5/mJ838i4KcFFKMUlGKSSW5JLgjzaL0dTt6UaVKOIx98n4yb8Wz1mpw8X+PH9tLh4v8eP7AAdnYAAAAAAAAAAAAAAAAAAAAAAAAAAAAAfGiFaxarQhL6RR3QT7VPG5N7lKPJZ8CbHn0jT2qVSPOL+Rz5OOZzyrlhjl7xBrfQEbtxjJyjsdrMeOPFepN9G6PpUKap0YKMFy4t+Mm/F+05erMO+/ZFfP/Y7xHHhJ5+6es3vXkAB1SAAAAAAAAAAAAAAAAAAAAAAAAAAAAAAAAGNRbn5MyAHL0HT2VL24+GTqHxJH0iTUAAEgAcq81jtKU3TqVlGceK2KjxnfxSwRbJ7pktdUHE/pZY/5hfu6v8ojrZYt4+kR9YVYr3uJHfH5T1y+HbBqt7iFSO1TnGUX4xkpL3oXVxCnCU6ktmEVlt53L0LKtoOJ/S2x/wAwv3dX+Uf0tsf8wv3dX+Ur3x+VuuXw7YPNY6Qo1ltUakJpcdl5a81xR6SyoAAAMaqbi1F4k00m1nD8HjxKe1r0npe3vaFCtdKoqkqcoxorqI1FtpKElvccvdxfEi3S2OO1xggmm9WdLXMJTekY0qnGNChCcaa5RdXO03+dj0I/qTrNpWs6mj4Om69Pal11w23RhBqE04pfWS2msepHY6+PdbYKj1s0Hpazh9NWkqlZQac8KVPYy8JqGXGUc8eBPtSNOO8sqdeSSqb4TS4bcHhtex7n6ky/YuPjbvAhmvGt1ShVpWVnGMry4xhz7tKMnsxk14ttPdyT9mcbrUevUhtS0pe/ScZ21KMae1yVNY7PrkbOvymoKr1S1uvLe+/4dpKW29rqo1HxjJ9zf9qEljHjvRKNfnpGFGVeyuKUKdKEp1ISp9tqO9yhPeuHhheY34Ljq6SwFRai3WlryhXjSuVBOa27is5VJxzFfV0oLcuedx4NYLbSmia1Ou7ydaE3xcp7Mmt7hOnJvGVyZHb7p6edbXYDx6Kv41relXW6NSEanllZaIRorTFxpW7uKdOtOhY2uE+pwqtZybUczedmPZk93s5k7VkWGCpNeKF7ouVOva3txKjVbg41p9ZszS2kt/FNJ/8AaS/UyOkp4ub65ozo1KadKFGLiu1iW3PMVvS3ePFkS+dJ6+NpYCvqen7nSV7VtbKq6Fpb56ytBJ1am/GIZ3RTecexZ9hq1l1TvLenK5sNIXcp0ltyp1qm3tJcXHdjPsaJ2dflYxxda7OnK1rScI7Si5KWysprxycfo41vd9SlCskrijjacdyqRfCaXg+aO/rL+CV/0GRfOJJZkjHRxQhKNZyjFtOPeinjc+ZKb7QdtVTU6MPOMVFr2pojXRn3K/nH5MmxXjk6RbO/yVlf29fRtwpUpt0571nhNLjCS5rmWHo+7hXowqR3xqLOHvxzTOD0h0U7RS8YTi165i18V7h0eTbtGnwjOSXqk/myMZ1y6/ZOX8sdo7rzbwjewUIxSlCDaikk3tSWceSJ5LRdvOCjKjTaaX2Irw5og3SA8XtPCy+rhu59qW4789OXyju0fLcuPWOXwSIxsmVTd2TSMRpO00mqdFvCnGOM8YTSey+eFL4Fnlc6vaRt/pcqt7tq4lLc5RSpwfBZ8U/DfuLGTJ4vaq8nuAA6uYVN0l/4vo/zpf60S15ywm8N4WcLi/YVDrRZ6Tu72jdR0bVhGhsOMJzpty2ZbW9p4XLdkrn7L4e64CptQd2sF9j8i4/1qJP3pi4Vr1/0Cv121s/R1Olt8cbW1nGz48/YV1q1ZaTttI1b2ejqso11Ui4RnBOCqTjPKbe/Gyl4cSMvsYzxU+6QV/Zl5+qkcXoZ/wAOl+uqfKB7tf6t1O1lbW1nVqu5puMpKUFGlnGU9+XL4HJ6NKd9aw+i3FjUjCU5VOu24YjtJbpR/Z4rmPyJ/wAo9p6tsazQnV7qqUcZ4YlTUY/FlyEE6SNSZXmxcWzSuaS2MN7KqRTbis+Ek28P2+Rr0JrXpKEFRu9F3NStDs7dLYSqY4OW08J82m/JcBPFL5k0jPSlQ/ti16v+8nGhw47SqyUX/wDciy9c3/Z15+pq/wALOBoLVivWvnpPSKjGosKjQi9tUUliLlLxaTfq2+SPd0gXVz9Hnb21nVru4hODnCUVGlnC3p7297x5D5pfOo4PQf8Agtx+tX8CN3TYv6lSf/WX8Ejn9GVO/s3KhW0fX6uvUi3UzBKlu2W5JvevHcenpRje3SVrQsK0oU5qp1ycXGfZaxFftePIj8VvzSnUVZ0XarnSS+ZXWrF5LQ1/XpXsJq3r9lVFFyXZbdOouaxKSaW9ZJp0dXV3GjC0ubGrRVCnhVZSi4zw0lHZ4qW9vxW4h2vd7pKjpOnOcY1oQcqltS6vrIOOMPNOPa2lniTfaVE97HX10uXpb6PaaPjOdNT66rXcJQp00ouKScl2n2pPC5Lnunc7TqrN0qf4ui4R/ZhhFbx6Ubukvr9GKMeadagvTag0TfU/W2hpCnN04yhUp4U6c2m1nhJNcYvD9xMsRZZEH6D6yVS7py/vGqct/HEXJS+LRbMlnc+DKq0tqlfWN873RkFUpybk6XilLv02vGPJrevTfIHrPpGvSdO30XXp15LZ2684RpU2921njLHkiJdeDKbu4ifRJRa0ldbH93CNSO7hjrMR+RZ2s/4HX/QZztRtVI2FFpyU69V7VWaWFnwjH81fE+623ddwnb0bapPbik6ixsrPFJeL/wBxrWKd7yc3oz7lbzj8mTYrfVyV9aSli0nOE8bUWnF7vFMkr01ezWKVhKMn41qiUV6Jb/eV48tY6M5u7eLpGvUqNOiu9OSm1yjHPzbXuOtqjo90bWEZLEpZm/ZtcF7sHi0ZqzJ1vpN7NVK3FRXcjy88eC4eZIbys4QlOMJTcVlRhjMvYiZPPaot8dYr/X38Op/oQ/ikWHS7q8kVtrFQvLmv1qtKsMJRS7z3b8t+pJLPT95sKM9H1XNJLKmop+3etxXG6yq2U3I5XSRaQUqVVJKc9qMvzksYb8s/ElGq85OzoOedrYXHl9n4YOJLQNxeVo1b3Zp04bo0oPLxxw34Z8WS6EEkklhJYSXglwRbGfyuSuV8SMgAdFAAAAAAAAAAAAAAAAHl0rWnChVnSjtVIQnKEfypKLaXvIB0SaTp13cVK9RTv5zzJzxtOlhbKgvCKe1uRZJCtL9GtlVqutSlVt6km5PqZYjl8ZKL7r8mit2tLNaS2/dJU5uvsdUk9rrMbOz45yV/0S6I2Z3d3GLjb1pOnQT3bUFJvbX5vBL1OxY9H1vFp3Ne5ulHeoXFaTp+sFx9dxLoQSSUUkluSSwkuSQ1s3qajIAFlQAAAAAAAAAAAAAAAAAAAAAAAAAAAAAAAAAAAAAAAAAAAAAAAAAAAAAAAH//2Q==;" vertex="1" parent="1">
          <mxGeometry x="925" y="600" width="90" height="90" as="geometry" />
        </mxCell>
      </root>
    </mxGraphModel>
  </diagram>
</mxfile>
